<svg width="95" height="73" viewBox="0 0 95 73" fill="none" xmlns="http://www.w3.org/2000/svg">
<path fill-rule="evenodd" clip-rule="evenodd" d="M68.7964 7.36424C61.7791 8.1678 55.5025 11.3564 52 13.4777V61.4885C56.2282 59.621 61.4533 57.8799 67.2036 57.2214C73.6757 56.4803 79.5332 56.7529 84 57.2694V7.61835C80.2635 7.08451 74.8375 6.67247 68.7964 7.36424ZM91 3.38072V9.317H94.5V69.3599V72.8599H91H48.6785L48.5084 72.8773L48.3298 72.8599H4H0.5V69.3599V9.317H4V3.39815C4 2.49737 4.60163 1.71245 5.48203 1.52195C8.85439 0.792211 17.619 -0.729508 28 0.409709C36.6684 1.36098 44.2097 5.01667 48.4255 7.45826C52.4657 5.01667 59.6928 1.36096 68 0.409692C77.9079 -0.724875 86.2793 0.779815 89.5399 1.51295C90.4107 1.70876 91 2.48815 91 3.38072ZM45 61.6712V13.5642C41.3242 11.4268 34.6877 8.18564 27.2364 7.36794C20.7515 6.65628 14.9419 7.10112 11 7.65465V57.3078C15.6708 56.7684 21.8828 56.4626 28.7636 57.2178C34.9346 57.895 40.5304 59.7332 45 61.6712Z" fill="#4B4338"/>
</svg>
