<svg width="96" height="84" viewBox="0 0 96 84" fill="none" xmlns="http://www.w3.org/2000/svg">
<rect x="2.88589" y="78.1976" width="89.9693" height="5.04501" fill="#FF6E34"/>
<path fill-rule="evenodd" clip-rule="evenodd" d="M40.3707 32.203C33.5044 29.518 28.1109 23.2544 28.1109 15.135C28.1109 5.61523 30.213 0 47.8706 0C65.5281 0 67.6302 5.61523 67.6302 15.135C67.6302 23.8813 62.2338 29.8425 55.3649 32.329C55.2296 35.5656 55.2083 39.0548 55.438 42.0417H47.8705H40.303C40.5357 39.016 40.5107 35.4749 40.3707 32.203ZM35.6784 47.5072C35.6784 45.4175 37.3724 43.7234 39.4621 43.7234H57.1197C59.2094 43.7234 60.9034 45.4175 60.9034 47.5072C60.9034 49.5969 59.2094 51.2909 57.1197 51.2909H39.4621C37.3724 51.2909 35.6784 49.5969 35.6784 47.5072ZM39.0455 52.9726H57.1026C61.5709 57.1986 73.921 59.2788 94.9416 59.6993H95.3776L94.5368 76.516H1.20413L0.363297 59.6993H1.20637C22.227 59.2788 34.5771 57.1986 39.0455 52.9726Z" fill="#4B4338"/>
</svg>
