<svg width="96" height="113" viewBox="0 0 96 113" fill="none" xmlns="http://www.w3.org/2000/svg">
<path fill-rule="evenodd" clip-rule="evenodd" d="M40.3707 32.203C33.5044 29.518 28.1109 23.2544 28.1109 15.135C28.1109 5.61523 30.213 0 47.8706 0C65.5281 0 67.6302 5.61523 67.6302 15.135C67.6302 23.8813 62.2338 29.8425 55.3649 32.329C55.2296 35.5656 55.2083 39.0548 55.438 42.0417H47.8705H40.303C40.5357 39.016 40.5107 35.4749 40.3707 32.203ZM35.6784 47.5072C35.6784 45.4175 37.3724 43.7234 39.4621 43.7234H57.1197C59.2094 43.7234 60.9034 45.4175 60.9034 47.5072C60.9034 49.5969 59.2094 51.2909 57.1197 51.2909H39.4621C37.3724 51.2909 35.6784 49.5969 35.6784 47.5072ZM39.0455 52.9726H57.1025C61.5709 57.1986 73.921 59.2788 94.9416 59.6993H95.3776L94.5368 76.516H1.20413L0.363297 59.6993H1.20637C22.227 59.2788 34.5771 57.1986 39.0455 52.9726Z" fill="#4B4338"/>
<path fill-rule="evenodd" clip-rule="evenodd" d="M92.8552 78.1976H2.88589V83.2426H92.8552V78.1976ZM3.50304 93.6602C3.78429 93.6602 4.17101 93.7422 4.66319 93.9062L2.5421 109.949C2.43272 110.801 2.19444 111.305 1.82726 111.461C1.76476 111.492 1.71397 111.523 1.67491 111.555C1.64366 111.578 1.62804 111.66 1.62804 111.801C1.62804 111.934 1.67882 112 1.78038 112H5.3546C5.45616 112 5.50694 111.926 5.50694 111.777C5.50694 111.629 5.45616 111.531 5.3546 111.484C5.25304 111.438 5.15538 111.367 5.06163 111.273C4.96788 111.18 4.85069 110.965 4.71007 110.629C4.56944 110.285 4.51866 109.988 4.55772 109.738L6.28038 95.8164H6.38585L12.421 105.941C12.4366 105.965 12.5733 105.98 12.8312 105.988C13.0968 105.996 13.2413 105.98 13.2648 105.941L19.0538 95.8164H19.1124L20.9991 109.738C21.0069 109.785 21.0108 109.879 21.0108 110.02C21.0108 110.152 20.9327 110.406 20.7765 110.781C20.628 111.148 20.4523 111.375 20.2491 111.461C20.1866 111.492 20.1358 111.523 20.0968 111.555C20.0655 111.578 20.0499 111.66 20.0499 111.801C20.0499 111.934 20.1007 112 20.2023 112H24.1046C24.2062 112 24.2569 111.926 24.2569 111.777C24.2569 111.629 24.2062 111.531 24.1046 111.484C23.7062 111.297 23.4523 110.785 23.3429 109.949L21.1046 93.9414C21.5733 93.7617 22.0148 93.6719 22.4288 93.6719C22.8429 93.6719 23.1749 93.6953 23.4249 93.7422C23.6749 93.7812 23.7999 93.7305 23.7999 93.5898C23.7999 93.3398 23.7062 93.1953 23.5187 93.1562C22.3546 92.8906 20.7608 92.7578 18.7374 92.7578L13.1124 102.367H12.9952L7.11241 92.7578C5.08897 92.7578 3.49522 92.8906 2.33116 93.1562C2.25304 93.1719 2.18663 93.2227 2.13194 93.3086C2.07726 93.3945 2.04991 93.4766 2.04991 93.5547C2.04991 93.6328 2.06163 93.6914 2.08507 93.7305C2.10851 93.7695 2.24522 93.7695 2.49522 93.7305C2.74522 93.6836 3.08116 93.6602 3.50304 93.6602ZM27.5382 93.4375C27.9288 93.8281 28.1241 94.3008 28.1241 94.8555V104.57C28.1241 106.078 28.4913 107.438 29.2257 108.648C29.9601 109.852 30.9366 110.781 32.1554 111.438C33.3819 112.094 34.6983 112.422 36.1046 112.422C37.5187 112.422 38.8038 112.102 39.9601 111.461C41.1241 110.82 42.0499 109.938 42.7374 108.812C43.4327 107.688 43.7804 106.453 43.7804 105.109V94.8555C43.7804 94.5898 43.8351 94.3281 43.9444 94.0703C44.0538 93.8047 44.1554 93.625 44.2491 93.5312C44.3507 93.4297 44.4327 93.3672 44.4952 93.3438C44.5577 93.3125 44.6046 93.2852 44.6358 93.2617C44.6749 93.2305 44.6944 93.1484 44.6944 93.0156C44.6944 92.875 44.6437 92.8047 44.5421 92.8047H40.8858C40.7843 92.8047 40.7335 92.8789 40.7335 93.0273C40.7335 93.1758 40.7843 93.2734 40.8858 93.3203C40.9874 93.3672 41.0538 93.4062 41.0851 93.4375C41.4601 93.8125 41.6476 94.2852 41.6476 94.8555V105.109C41.6476 106 41.4015 106.844 40.9093 107.641C40.4249 108.43 39.7648 109.066 38.9288 109.551C38.1007 110.027 37.214 110.266 36.2687 110.266C34.6593 110.266 33.296 109.77 32.1788 108.777C31.0694 107.777 30.5148 106.375 30.5148 104.57V94.8555C30.5148 94.5898 30.5694 94.3281 30.6788 94.0703C30.7882 93.8047 30.8898 93.625 30.9835 93.5312C31.0851 93.4297 31.1671 93.3672 31.2296 93.3438C31.2921 93.3125 31.339 93.2852 31.3702 93.2617C31.4093 93.2305 31.4288 93.1484 31.4288 93.0156C31.4288 92.875 31.378 92.8047 31.2765 92.8047H27.339C27.2374 92.8047 27.1866 92.8789 27.1866 93.0273C27.1866 93.1758 27.2374 93.2734 27.339 93.3203C27.4405 93.3672 27.5069 93.4062 27.5382 93.4375ZM49.4991 111.648C49.7804 111.734 50.0382 111.805 50.2726 111.859L50.9405 112.047C51.3155 112.141 51.796 112.199 52.3819 112.223C53.4444 112.223 54.3937 111.984 55.2296 111.508C56.0655 111.023 56.7101 110.383 57.1632 109.586C57.4366 109.102 57.671 108.188 57.8663 106.844V106.727C57.8663 105.727 57.589 104.789 57.0343 103.914C56.4874 103.031 55.5304 102.211 54.1632 101.453L51.9366 100.258C49.8898 99.1328 48.8663 98.0039 48.8663 96.8711C48.8663 95.3086 49.8116 94.5273 51.7023 94.5273C52.5929 94.5273 53.4835 94.793 54.3741 95.3242C55.2648 95.8477 55.8312 96.5078 56.0733 97.3047C56.1124 97.4453 56.1593 97.5156 56.214 97.5156C56.5733 97.5156 56.753 97.4805 56.753 97.4102L56.4015 93.6484C56.4015 93.5 56.2257 93.4453 55.8741 93.4844C55.8585 93.4844 55.8116 93.5625 55.7335 93.7188C55.6554 93.8672 55.5148 93.9062 55.3116 93.8359C55.1085 93.7656 54.7882 93.625 54.3507 93.4141C53.4288 92.9688 52.5538 92.7461 51.7257 92.7461C50.2491 92.7461 49.0616 93.1367 48.1632 93.918C47.2726 94.6992 46.8273 95.8047 46.8273 97.2344C46.8273 98.6641 47.7648 100.055 49.6398 101.406C50.3741 101.938 51.3312 102.539 52.5108 103.211C53.6983 103.883 54.4483 104.41 54.7608 104.793C54.9093 104.973 55.0968 105.242 55.3233 105.602C55.5577 105.953 55.6749 106.488 55.6749 107.207C55.6749 108.277 55.3273 109.09 54.6319 109.645C53.9444 110.191 53.0773 110.465 52.0304 110.465C50.0382 110.465 48.5265 109.828 47.4952 108.555C47.4405 108.461 47.4054 108.406 47.3898 108.391L47.3077 108.309C47.2687 108.262 47.1944 108.238 47.0851 108.238C46.8116 108.238 46.6944 108.32 46.7335 108.484L47.7413 111.941C47.7491 111.98 47.7765 112 47.8233 112H48.1632C48.171 112 48.1788 111.992 48.1866 111.977C48.3351 111.664 48.546 111.508 48.8194 111.508H48.9601C49.0382 111.508 49.2179 111.555 49.4991 111.648ZM71.5538 99.9531C71.1788 100.328 70.7062 100.516 70.1358 100.516H62.7413V94.7031H70.5226C71.4054 94.7031 71.9444 94.7812 72.1398 94.9375C72.3429 95.0859 72.4679 95.1992 72.5148 95.2773C72.5694 95.3477 72.6163 95.4062 72.6554 95.4531C72.6944 95.4922 72.7296 95.5117 72.7608 95.5117C72.7999 95.5117 72.8741 95.4922 72.9835 95.4531C73.1007 95.4141 73.1593 95.3789 73.1593 95.3477C73.1593 95.3164 73.1046 95.1641 72.9952 94.8906L72.6202 93.9414C72.4796 93.582 72.3819 93.3047 72.3273 93.1094C72.2726 92.9062 72.2062 92.8047 72.128 92.8047H59.7062C59.6046 92.8047 59.5538 92.8789 59.5538 93.0273C59.5538 93.1758 59.6046 93.2734 59.7062 93.3203C59.8077 93.3672 59.8741 93.4062 59.9054 93.4375C60.2804 93.8125 60.4679 94.2852 60.4679 94.8555V109.949C60.4679 110.215 60.4132 110.48 60.3038 110.746C60.1944 111.004 60.089 111.184 59.9874 111.285C59.8937 111.379 59.8155 111.441 59.753 111.473C59.6905 111.496 59.6398 111.523 59.6007 111.555C59.5694 111.578 59.5538 111.66 59.5538 111.801C59.5538 111.934 59.6046 112 59.7062 112H72.128C72.214 111.969 72.2804 111.863 72.3273 111.684C72.3819 111.496 72.4796 111.223 72.6202 110.863L72.9952 109.914C73.1046 109.641 73.1593 109.488 73.1593 109.457C73.1593 109.426 73.1007 109.391 72.9835 109.352C72.8741 109.312 72.796 109.293 72.7491 109.293C72.7101 109.293 72.6476 109.352 72.5616 109.469C72.4835 109.586 72.3429 109.723 72.1398 109.879C71.9444 110.027 71.4054 110.102 70.5226 110.102H62.7413V102.414H70.1358C70.4015 102.414 70.6632 102.465 70.921 102.566C71.1866 102.668 71.3663 102.77 71.4601 102.871C71.5616 102.965 71.6241 103.043 71.6476 103.105C71.6788 103.168 71.7062 103.219 71.7296 103.258C71.7608 103.289 71.8429 103.305 71.9757 103.305C72.1163 103.305 72.1866 103.254 72.1866 103.152V99.7539C72.1866 99.6523 72.1124 99.6016 71.964 99.6016C71.8155 99.6016 71.7179 99.6523 71.671 99.7539C71.6241 99.8555 71.5851 99.9219 71.5538 99.9531ZM84.8898 110.465C84.1554 110.465 83.4054 110.312 82.6398 110.008C81.171 109.422 79.8624 108.391 78.714 106.914C77.5733 105.438 77.003 103.918 77.003 102.355C77.003 100.785 77.3233 99.4062 77.964 98.2188C78.6046 97.0312 79.5148 96.1016 80.6944 95.4297C81.8741 94.7578 83.128 94.4219 84.4562 94.4219C85.7843 94.4219 86.9718 94.6758 88.0187 95.1836C89.0733 95.6914 89.964 96.3359 90.6905 97.1172C91.4171 97.8906 91.9952 98.7461 92.4249 99.6836C92.8624 100.621 93.0812 101.516 93.0812 102.367C93.0812 104.836 92.339 106.805 90.8546 108.273C89.378 109.734 87.3898 110.465 84.8898 110.465ZM75.6437 106.211C76.1593 107.461 76.8546 108.543 77.7296 109.457C78.6046 110.363 79.6554 111.086 80.8819 111.625C82.1085 112.164 83.4562 112.434 84.9249 112.434C86.3937 112.434 87.7882 112.152 89.1085 111.59C90.4366 111.027 91.5343 110.277 92.4015 109.34C93.2765 108.395 93.9562 107.312 94.4405 106.094C94.9249 104.875 95.1671 103.598 95.1671 102.262C95.1671 99.9883 94.4796 98.0117 93.1046 96.332C91.7374 94.6445 90.0265 93.4922 87.9718 92.875C86.9327 92.5625 85.8155 92.4062 84.6202 92.4062C83.4249 92.4062 82.2179 92.6719 80.9991 93.2031C79.7882 93.7344 78.7335 94.4453 77.8351 95.3359C76.9444 96.2188 76.2257 97.2695 75.6788 98.4883C75.1398 99.6992 74.8702 100.977 74.8702 102.32C74.8702 103.656 75.128 104.953 75.6437 106.211Z" fill="#FF6E34"/>
</svg>
