<?xml version="1.0" encoding="UTF-8"?><svg xmlns="http://www.w3.org/2000/svg" xmlns:xlink="http://www.w3.org/1999/xlink" width="375" zoomAndPan="magnify" viewBox="0 0 375 374.999991" height="374.999991" preserveAspectRatio="xMidYMid meet" version="1.0"><defs><clipPath id="clip-0"><path d="M 67.234375 67.234375 L 307.984375 67.234375 L 307.984375 307.984375 L 67.234375 307.984375 Z M 67.234375 67.234375 " clip-rule="nonzero"/></clipPath><clipPath id="clip-1"><path d="M 103.039062 124.578125 L 253 124.578125 L 253 250.578125 L 103.039062 250.578125 Z M 103.039062 124.578125 " clip-rule="nonzero"/></clipPath></defs><g clip-path="url(#clip-0)"><path fill="rgb(100%, 100%, 100%)" d="M 279.144531 105.417969 C 274.433594 97.265625 265.898438 92.703125 257.113281 92.695312 L 257.117188 92.695312 C 248.335938 92.6875 239.796875 88.125 235.089844 79.972656 C 228.066406 67.808594 212.511719 63.640625 200.34375 70.664062 L 200.34375 70.667969 L 200.34375 70.660156 C 192.785156 75.011719 183.195312 75.355469 175.078125 70.753906 C 171.296875 68.527344 166.890625 67.246094 162.1875 67.246094 C 152.773438 67.246094 144.554688 72.363281 140.15625 79.964844 C 135.757812 87.5625 127.539062 92.679688 118.125 92.679688 C 104.078125 92.679688 92.691406 104.066406 92.691406 118.113281 L 92.691406 118.117188 L 92.683594 118.113281 C 92.675781 126.832031 88.183594 135.300781 80.148438 140.03125 C 76.324219 142.191406 73.007812 145.371094 70.652344 149.449219 C 65.945312 157.605469 66.265625 167.277344 70.652344 174.886719 C 75.03125 182.496094 75.351562 192.171875 70.644531 200.324219 C 63.621094 212.488281 67.789062 228.042969 79.957031 235.066406 L 79.957031 235.070312 L 79.953125 235.074219 C 87.554688 239.46875 92.667969 247.6875 92.667969 257.101562 C 92.667969 271.152344 104.054688 282.539062 118.101562 282.539062 C 127.515625 282.539062 135.734375 287.652344 140.132812 295.253906 C 144.53125 302.851562 152.75 307.96875 162.164062 307.96875 C 166.871094 307.96875 171.273438 306.6875 175.054688 304.460938 C 183.171875 299.859375 192.761719 300.207031 200.320312 304.558594 L 200.320312 304.550781 L 200.320312 304.554688 C 212.488281 311.578125 228.042969 307.410156 235.066406 295.242188 C 239.773438 287.09375 248.308594 282.53125 257.09375 282.523438 L 257.089844 282.519531 C 265.875 282.515625 274.414062 277.953125 279.117188 269.800781 C 281.433594 265.789062 282.535156 261.40625 282.53125 257.082031 L 282.535156 257.085938 C 282.542969 248.613281 286.785156 240.367188 294.402344 235.570312 C 298.507812 233.410156 302.074219 230.101562 304.5625 225.789062 C 309.273438 217.636719 308.953125 207.960938 304.566406 200.351562 C 300.183594 192.742188 299.863281 183.066406 304.570312 174.914062 C 311.597656 162.75 307.425781 147.195312 295.261719 140.171875 L 295.257812 140.167969 L 295.265625 140.167969 C 287.722656 135.804688 282.632812 127.679688 282.550781 118.359375 C 282.597656 113.960938 281.5 109.5 279.144531 105.417969 " fill-opacity="1" fill-rule="nonzero"/></g><g clip-path="url(#clip-1)"><path fill="rgb(6.269836%, 5.879211%, 5.099487%)" d="M 226.589844 246.707031 L 226.589844 233.371094 L 248.996094 233.371094 L 248.996094 246.707031 Z M 198.050781 238.320312 L 198.050781 233.371094 L 222.742188 233.371094 L 222.742188 246.707031 L 204.175781 246.707031 L 204.175781 245.390625 C 204.175781 241.789062 201.507812 238.8125 198.050781 238.320312 Z M 200.324219 246.667969 L 107.027344 246.667969 L 107.027344 245.390625 C 107.027344 243.574219 108.5 242.101562 110.308594 242.101562 L 197.046875 242.101562 C 198.855469 242.101562 200.324219 243.574219 200.324219 245.390625 Z M 114.292969 218.128906 C 114.292969 212.660156 118.730469 208.207031 124.183594 208.207031 L 155.777344 208.207031 C 161.230469 208.207031 165.667969 212.660156 165.667969 218.128906 L 165.667969 238.238281 L 114.292969 238.238281 Z M 139.070312 178.8125 C 141.351562 176.449219 143.472656 173.65625 143.761719 169.285156 L 154.949219 169.285156 C 155.242188 173.65625 157.363281 176.449219 159.644531 178.8125 C 161.996094 181.246094 163.289062 184.453125 163.289062 187.84375 L 163.289062 204.347656 L 135.425781 204.347656 L 135.425781 187.84375 C 135.425781 184.453125 136.71875 181.246094 139.070312 178.8125 Z M 141.644531 159.992188 C 141.644531 159.554688 142 159.195312 142.4375 159.195312 L 156.097656 159.195312 C 156.535156 159.195312 156.890625 159.554688 156.890625 159.992188 L 156.890625 165.421875 L 141.644531 165.421875 Z M 188.828125 202.890625 C 188.828125 196.257812 194.207031 190.863281 200.820312 190.863281 C 207.429688 190.863281 212.8125 196.257812 212.8125 202.890625 C 212.8125 209.523438 207.429688 214.917969 200.820312 214.917969 C 199.707031 214.917969 198.609375 214.757812 197.554688 214.460938 C 196.371094 210.171875 193.175781 206.714844 189.050781 205.191406 C 188.90625 204.4375 188.828125 203.667969 188.828125 202.890625 Z M 184.308594 208.207031 C 189.765625 208.207031 194.203125 212.660156 194.203125 218.128906 L 194.203125 238.238281 L 169.515625 238.238281 L 169.515625 218.128906 C 169.515625 214.238281 167.898438 210.714844 165.300781 208.207031 Z M 178.894531 176.273438 L 222.742188 176.273438 L 222.742188 229.511719 L 198.050781 229.511719 L 198.050781 218.535156 C 198.960938 218.695312 199.886719 218.78125 200.820312 218.78125 C 209.554688 218.78125 216.660156 211.652344 216.660156 202.890625 C 216.660156 194.132812 209.554688 187.003906 200.820312 187.003906 C 192.085938 187.003906 184.976562 194.132812 184.976562 202.890625 C 184.976562 203.386719 185.007812 203.878906 185.054688 204.367188 C 184.808594 204.355469 184.558594 204.347656 184.308594 204.347656 L 178.894531 204.347656 Z M 191.203125 136.410156 L 234.453125 136.410156 L 223.558594 155.300781 L 180.308594 155.300781 Z M 192.019531 129.875 C 192.019531 129.089844 192.65625 128.449219 193.441406 128.449219 L 234.445312 128.449219 C 235.230469 128.449219 235.867188 129.089844 235.867188 129.875 L 235.867188 132.550781 L 192.019531 132.550781 Z M 226.589844 172.414062 L 226.589844 159.160156 L 248.996094 159.160156 L 248.996094 172.414062 Z M 226.589844 176.273438 L 248.996094 176.273438 L 248.996094 229.511719 L 226.589844 229.511719 Z M 237.792969 138.328125 L 247.582031 155.300781 L 228.003906 155.300781 Z M 178.894531 159.160156 L 222.742188 159.160156 L 222.742188 172.414062 L 178.894531 172.414062 Z M 252.902344 174.34375 C 252.902344 174.1875 252.878906 174.035156 252.84375 173.890625 L 252.84375 157.234375 C 252.84375 157.117188 252.828125 157 252.808594 156.882812 C 252.804688 156.855469 252.800781 156.828125 252.792969 156.804688 C 252.769531 156.695312 252.738281 156.589844 252.695312 156.484375 C 252.6875 156.472656 252.683594 156.464844 252.679688 156.453125 C 252.652344 156.390625 252.621094 156.324219 252.585938 156.261719 L 239.71875 133.957031 L 239.71875 129.875 C 239.71875 126.960938 237.351562 124.585938 234.445312 124.585938 L 193.441406 124.585938 C 190.535156 124.585938 188.167969 126.960938 188.167969 129.875 L 188.167969 133.960938 L 175.304688 156.261719 C 175.269531 156.324219 175.242188 156.382812 175.214844 156.445312 C 175.207031 156.460938 175.199219 156.472656 175.195312 156.484375 C 175.152344 156.589844 175.121094 156.695312 175.097656 156.800781 C 175.089844 156.828125 175.085938 156.855469 175.082031 156.886719 C 175.058594 157 175.046875 157.113281 175.046875 157.230469 L 175.046875 204.347656 L 167.140625 204.347656 L 167.140625 187.84375 C 167.140625 183.449219 165.460938 179.285156 162.410156 176.125 C 160.070312 173.703125 159.023438 171.753906 158.808594 169.285156 L 158.816406 169.285156 C 159.878906 169.285156 160.742188 168.417969 160.742188 167.351562 L 160.742188 159.992188 C 160.742188 157.421875 158.65625 155.335938 156.097656 155.335938 L 142.4375 155.335938 C 139.878906 155.335938 137.796875 157.421875 137.796875 159.992188 L 137.796875 167.351562 C 137.796875 168.417969 138.65625 169.285156 139.71875 169.285156 L 139.90625 169.285156 C 139.691406 171.753906 138.648438 173.703125 136.304688 176.125 C 133.257812 179.285156 131.574219 183.449219 131.574219 187.84375 L 131.574219 204.347656 L 124.183594 204.347656 C 116.605469 204.347656 110.441406 210.53125 110.441406 218.128906 L 110.441406 238.238281 L 110.308594 238.238281 C 106.378906 238.238281 103.179688 241.449219 103.179688 245.390625 L 103.179688 248.597656 C 103.179688 249.664062 104.042969 250.527344 105.105469 250.527344 L 202.25 250.527344 L 202.25 250.566406 L 250.917969 250.566406 C 251.980469 250.566406 252.84375 249.703125 252.84375 248.636719 L 252.84375 231.894531 C 252.878906 231.746094 252.902344 231.597656 252.902344 231.441406 L 252.902344 174.34375 " fill-opacity="1" fill-rule="nonzero"/></g></svg>