<?xml version="1.0" encoding="UTF-8"?><svg xmlns="http://www.w3.org/2000/svg" xmlns:xlink="http://www.w3.org/1999/xlink" width="375" zoomAndPan="magnify" viewBox="0 0 375 374.999991" height="374.999991" preserveAspectRatio="xMidYMid meet" version="1.0"><defs><clipPath id="clip-0"><path d="M 114.441406 116.976562 L 264.441406 116.976562 L 264.441406 245.226562 L 114.441406 245.226562 Z M 114.441406 116.976562 " clip-rule="nonzero"/></clipPath></defs><g clip-path="url(#clip-0)"><path fill="rgb(0%, 0%, 0%)" d="M 237.769531 230.707031 L 228.101562 230.707031 L 228.101562 235.546875 L 237.769531 235.546875 L 237.769531 240.386719 L 141.117188 240.386719 L 141.117188 235.546875 L 223.269531 235.546875 L 223.269531 230.707031 L 141.117188 230.707031 C 129.941406 230.707031 120.710938 222.21875 119.503906 211.347656 L 136.625 211.347656 C 137.710938 215.507812 141.457031 218.609375 145.949219 218.609375 C 149.480469 218.609375 152.539062 216.691406 154.226562 213.855469 C 155.90625 215.289062 158.070312 216.1875 160.445312 216.1875 C 164.003906 216.1875 167.09375 214.230469 168.773438 211.347656 L 259.382812 211.347656 C 258.175781 222.21875 248.941406 230.707031 237.769531 230.707031 Z M 119.371094 187.152344 C 119.371094 184.484375 121.542969 182.3125 124.203125 182.3125 C 126.863281 182.3125 129.035156 184.484375 129.035156 187.152344 C 129.035156 189.816406 126.863281 191.992188 124.203125 191.992188 C 121.542969 191.992188 119.371094 189.816406 119.371094 187.152344 Z M 124.25 158.113281 C 124.449219 163.644531 125.34375 169.078125 126.921875 174.34375 C 122.617188 169.898438 120.023438 164.21875 119.472656 158.113281 Z M 143.535156 182.3125 C 143.535156 184.976562 141.363281 187.152344 138.699219 187.152344 C 136.039062 187.152344 133.867188 184.976562 133.867188 182.3125 C 133.867188 179.644531 136.039062 177.472656 138.699219 177.472656 C 141.363281 177.472656 143.535156 179.644531 143.535156 182.3125 Z M 153.199219 175.050781 C 155.859375 175.050781 158.03125 177.226562 158.03125 179.890625 C 158.03125 182.558594 155.859375 184.730469 153.199219 184.730469 C 150.535156 184.730469 148.367188 182.558594 148.367188 179.890625 C 148.367188 177.226562 150.535156 175.050781 153.199219 175.050781 Z M 170.113281 201.667969 C 170.113281 199.003906 172.285156 196.832031 174.945312 196.832031 C 177.605469 196.832031 179.777344 199.003906 179.777344 201.667969 C 179.777344 204.335938 177.605469 206.507812 174.945312 206.507812 C 172.285156 206.507812 170.113281 204.335938 170.113281 201.667969 Z M 160.445312 201.667969 C 163.109375 201.667969 165.28125 203.84375 165.28125 206.507812 C 165.28125 209.175781 163.109375 211.347656 160.445312 211.347656 C 157.785156 211.347656 155.613281 209.175781 155.613281 206.507812 C 155.613281 203.84375 157.785156 201.667969 160.445312 201.667969 Z M 145.949219 204.089844 C 148.609375 204.089844 150.78125 206.261719 150.78125 208.929688 C 150.78125 211.59375 148.609375 213.769531 145.949219 213.769531 C 143.289062 213.769531 141.117188 211.59375 141.117188 208.929688 C 141.117188 206.261719 143.289062 204.089844 145.949219 204.089844 Z M 138.699219 199.25 C 138.699219 201.914062 136.53125 204.089844 133.867188 204.089844 C 131.207031 204.089844 129.035156 201.914062 129.035156 199.25 C 129.035156 196.585938 131.207031 194.410156 133.867188 194.410156 C 136.53125 194.410156 138.699219 196.585938 138.699219 199.25 Z M 162.863281 196.832031 C 160.203125 196.832031 158.03125 194.65625 158.03125 191.992188 C 158.03125 189.324219 160.203125 187.152344 162.863281 187.152344 C 165.523438 187.152344 167.695312 189.324219 167.695312 191.992188 C 167.695312 194.65625 165.523438 196.832031 162.863281 196.832031 Z M 153.199219 194.410156 C 153.199219 197.074219 151.027344 199.25 148.367188 199.25 C 145.703125 199.25 143.535156 197.074219 143.535156 194.410156 C 143.535156 191.746094 145.703125 189.570312 148.367188 189.570312 C 151.027344 189.570312 153.199219 191.746094 153.199219 194.410156 Z M 187.261719 155.777344 C 187.109375 157.535156 187.027344 159.292969 187.027344 161.0625 L 187.027344 164.664062 C 185.308594 163.644531 184.363281 161.882812 184.347656 161.855469 L 180.03125 164.039062 C 180.15625 164.285156 183.183594 170.210938 189.441406 170.210938 C 195.699219 170.210938 198.730469 164.285156 198.851562 164.039062 L 194.539062 161.855469 C 194.519531 161.882812 193.578125 163.644531 191.859375 164.664062 L 191.859375 161.0625 C 191.859375 159.324219 191.933594 157.582031 192.09375 155.863281 C 200.84375 156.648438 208.632812 161.28125 213.53125 168.660156 L 198.65625 197.105469 L 199.636719 198.34375 C 199.882812 198.644531 203.410156 202.9375 210.234375 206.507812 L 183.269531 206.507812 C 184.101562 205.082031 184.609375 203.4375 184.609375 201.667969 C 184.609375 196.328125 180.277344 191.992188 174.945312 191.992188 C 174.09375 191.992188 173.285156 192.132812 172.492188 192.351562 C 172.5 192.226562 172.527344 192.113281 172.527344 191.992188 C 172.527344 186.648438 168.195312 182.3125 162.863281 182.3125 C 162.742188 182.3125 162.628906 182.339844 162.503906 182.347656 C 162.722656 181.554688 162.863281 180.742188 162.863281 179.890625 C 162.863281 178.398438 162.496094 177 161.890625 175.730469 C 165.523438 164.589844 175.644531 156.675781 187.261719 155.777344 Z M 229.121094 149.273438 C 229.667969 148.234375 231.367188 148.234375 231.917969 149.273438 L 252.011719 187.699219 C 247.507812 192.066406 240.375 196.832031 230.519531 196.832031 C 220.664062 196.832031 213.53125 192.066406 209.027344 187.699219 Z M 230.519531 206.507812 C 215.910156 206.507812 207.289062 199.308594 204.449219 196.453125 L 206.695312 192.171875 C 211.898438 196.878906 219.824219 201.667969 230.519531 201.667969 C 241.214844 201.667969 249.140625 196.878906 254.34375 192.171875 L 256.578125 196.441406 C 253.730469 199.277344 245.027344 206.507812 230.519531 206.507812 Z M 141.882812 159.113281 C 142.25 158.5 142.9375 158.113281 143.882812 158.113281 C 145.023438 158.113281 145.949219 159.039062 145.949219 160.183594 L 145.949219 160.882812 C 145.949219 162.027344 145.023438 162.953125 143.882812 162.953125 C 143.097656 162.953125 142.390625 162.519531 142.042969 161.808594 L 141.230469 160.203125 Z M 165.410156 121.816406 L 167.695312 121.816406 C 178.871094 121.816406 188.101562 130.304688 189.308594 141.175781 L 187.027344 141.175781 C 175.851562 141.175781 166.621094 132.6875 165.410156 121.816406 Z M 250.800781 206.507812 C 257.625 202.9375 261.15625 198.644531 261.402344 198.34375 L 262.382812 197.105469 L 236.191406 147.035156 C 235.085938 144.90625 232.90625 143.59375 230.519531 143.59375 C 228.132812 143.59375 225.949219 144.90625 224.847656 147.035156 L 216.058594 163.824219 C 210.359375 156.496094 202.003906 151.914062 192.746094 151.035156 C 194.53125 140.871094 199.003906 131.304688 205.769531 123.394531 L 202.109375 120.238281 C 198.296875 124.691406 195.179688 129.632812 192.773438 134.886719 C 189.167969 124.472656 179.304688 116.976562 167.695312 116.976562 L 160.445312 116.976562 L 160.445312 119.394531 C 160.445312 134.074219 172.367188 146.015625 187.027344 146.015625 L 188.90625 146.015625 C 188.507812 147.628906 188.160156 149.265625 187.886719 150.917969 C 174.839844 151.535156 163.25 159.730469 158.25 171.675781 C 156.777344 170.761719 155.058594 170.210938 153.199219 170.210938 C 149.667969 170.210938 146.609375 172.132812 144.921875 174.964844 C 143.242188 173.53125 141.078125 172.632812 138.699219 172.632812 C 137.992188 172.632812 137.3125 172.71875 136.652344 172.859375 C 137.019531 170.289062 137.664062 167.765625 138.625 165.355469 C 139.917969 166.886719 141.816406 167.792969 143.882812 167.792969 C 147.6875 167.792969 150.78125 164.691406 150.78125 160.882812 L 150.78125 160.183594 C 150.78125 156.375 147.6875 153.273438 143.65625 153.273438 C 141.84375 153.273438 140.117188 154 138.832031 155.238281 C 137.164062 151.25 136.285156 146.929688 136.285156 142.601562 L 136.285156 138.753906 L 131.453125 138.753906 L 131.453125 142.601562 C 131.453125 148.367188 132.8125 154.152344 135.386719 159.3125 L 135.757812 160.042969 C 133.574219 164.179688 132.207031 168.691406 131.699219 173.332031 C 129.941406 167.621094 129.035156 161.714844 129.035156 155.691406 L 129.035156 153.273438 L 114.539062 153.273438 L 114.539062 155.691406 C 114.539062 163.917969 117.671875 171.648438 123.335938 177.558594 C 118.417969 178 114.539062 182.113281 114.539062 187.152344 C 114.539062 192.492188 118.871094 196.832031 124.203125 196.832031 C 124.324219 196.832031 124.4375 196.800781 124.550781 196.792969 C 124.355469 197.585938 124.203125 198.398438 124.203125 199.25 C 124.203125 202.152344 125.515625 204.730469 127.542969 206.507812 L 114.539062 206.507812 L 114.539062 208.929688 C 114.539062 221.953125 123.929688 232.796875 136.285156 235.082031 L 136.285156 245.226562 L 242.601562 245.226562 L 242.601562 235.082031 C 254.957031 232.796875 264.347656 221.953125 264.347656 208.929688 L 264.347656 206.507812 L 250.800781 206.507812 " fill-opacity="1" fill-rule="nonzero"/></g><path fill="rgb(0%, 0%, 0%)" d="M 232.933594 165.371094 L 228.101562 165.371094 L 228.101562 170.210938 L 232.933594 170.210938 L 232.933594 165.371094 " fill-opacity="1" fill-rule="nonzero"/><path fill="rgb(0%, 0%, 0%)" d="M 245.015625 182.3125 L 240.183594 182.3125 L 240.183594 187.152344 L 245.015625 187.152344 L 245.015625 182.3125 " fill-opacity="1" fill-rule="nonzero"/><path fill="rgb(0%, 0%, 0%)" d="M 220.855469 187.152344 L 220.855469 182.3125 L 216.023438 182.3125 L 216.023438 187.152344 L 220.855469 187.152344 " fill-opacity="1" fill-rule="nonzero"/></svg>