<?xml version="1.0" encoding="UTF-8"?><svg xmlns="http://www.w3.org/2000/svg" xmlns:xlink="http://www.w3.org/1999/xlink" width="375" zoomAndPan="magnify" viewBox="0 0 375 374.999991" height="374.999991" preserveAspectRatio="xMidYMid meet" version="1.0"><defs><clipPath id="clip-0"><path d="M 113.175781 99.238281 L 263.175781 99.238281 L 263.175781 249.238281 L 113.175781 249.238281 Z M 113.175781 99.238281 " clip-rule="nonzero"/></clipPath></defs><g clip-path="url(#clip-0)"><path fill="rgb(0%, 0%, 0%)" d="M 258.335938 188.878906 C 258.335938 196.324219 255.320312 203.519531 250.085938 208.859375 L 245.277344 208.121094 C 247.488281 203.480469 248.660156 198.386719 248.660156 193.199219 L 248.660156 184.3125 C 248.660156 175.714844 245.378906 167.464844 239.757812 161.199219 C 240.730469 160.28125 242.035156 159.722656 243.425781 159.722656 C 244.578125 159.722656 245.71875 160.101562 246.636719 160.773438 C 253.960938 166.1875 258.335938 174.789062 258.335938 183.792969 Z M 258.335938 222.628906 C 258.335938 227.03125 255.179688 230.714844 250.824219 231.386719 L 167.867188 244.144531 C 166.769531 244.316406 165.65625 244.402344 164.550781 244.402344 L 163.980469 244.402344 C 151.980469 244.402344 142.207031 234.628906 142.207031 222.628906 C 142.207031 210.625 151.980469 200.851562 163.980469 200.851562 L 164.550781 200.851562 C 165.65625 200.851562 166.769531 200.9375 167.867188 201.109375 L 250.824219 213.867188 C 255.179688 214.539062 258.335938 218.222656 258.335938 222.628906 Z M 127.636719 234.675781 C 126.480469 234.921875 125.273438 233.996094 125.273438 232.785156 L 125.273438 231.824219 C 125.273438 230.753906 126.140625 229.886719 127.210938 229.886719 L 138.398438 229.886719 C 138.617188 230.640625 138.871094 231.386719 139.144531 232.117188 Z M 118.015625 222.628906 C 118.015625 221.292969 119.101562 220.207031 120.433594 220.207031 L 137.492188 220.207031 C 137.417969 221.011719 137.371094 221.8125 137.371094 222.628906 C 137.371094 223.441406 137.417969 224.242188 137.492188 225.046875 L 120.433594 225.046875 C 119.101562 225.046875 118.015625 223.960938 118.015625 222.628906 Z M 125.273438 213.429688 L 125.273438 212.46875 C 125.273438 211.257812 126.445312 210.324219 127.636719 210.578125 L 139.144531 213.136719 C 138.871094 213.867188 138.617188 214.613281 138.398438 215.367188 L 127.210938 215.367188 C 126.140625 215.367188 125.273438 214.5 125.273438 213.429688 Z M 146.328125 181.496094 L 144.628906 181.496094 C 139.289062 181.496094 134.949219 177.160156 134.949219 171.820312 C 134.949219 170.6875 135.175781 169.535156 135.613281 168.378906 L 136.328125 166.527344 L 134.648438 165.46875 C 131.804688 163.675781 130.109375 160.621094 130.109375 157.304688 C 130.109375 155.40625 130.667969 153.550781 131.726562 151.964844 L 133.238281 149.695312 L 130.808594 148.46875 C 125.90625 145.972656 122.851562 141.011719 122.851562 135.53125 C 122.851562 129.09375 127.179688 123.359375 133.371094 121.582031 L 134.875 121.15625 L 135.101562 119.605469 C 135.789062 114.890625 139.882812 111.335938 144.628906 111.335938 C 144.722656 111.335938 144.808594 111.355469 144.902344 111.363281 C 145.0625 111.394531 145.222656 111.414062 145.394531 111.421875 L 147.132812 111.574219 L 147.820312 109.964844 C 149.34375 106.394531 152.839844 104.078125 156.722656 104.078125 C 161.410156 104.078125 165.410156 107.433594 166.222656 112.0625 L 166.667969 114.550781 L 169.132812 114 C 169.890625 113.839844 170.570312 113.757812 171.238281 113.757812 C 172.355469 113.757812 173.414062 114 174.425781 114.351562 C 170.863281 115.390625 167.800781 117.753906 165.917969 121.023438 C 159.511719 121.242188 153.984375 125.757812 152.394531 131.921875 C 144.902344 134.707031 139.789062 141.964844 139.789062 150.046875 C 139.789062 156.53125 142.984375 162.453125 148.257812 166.035156 C 147.460938 167.851562 147.046875 169.816406 147.046875 171.820312 C 147.046875 176.175781 148.984375 180.222656 152.300781 182.960938 C 152.027344 184.085938 151.886719 185.210938 151.886719 186.335938 C 151.886719 190.589844 153.71875 194.40625 156.609375 197.074219 C 155.175781 197.488281 153.792969 198.035156 152.460938 198.667969 Z M 187.996094 126.582031 L 188.441406 129.066406 L 190.90625 128.519531 C 191.664062 128.355469 192.34375 128.273438 193.015625 128.273438 C 198.355469 128.273438 202.691406 132.609375 202.691406 137.949219 C 202.691406 140.492188 201.707031 142.902344 199.914062 144.726562 L 198.25 146.417969 L 199.914062 148.109375 C 201.707031 149.941406 202.691406 152.34375 202.691406 154.886719 C 202.691406 154.960938 202.671875 155.027344 202.671875 155.101562 C 202.019531 154.96875 201.351562 154.886719 200.667969 154.886719 C 198.484375 154.886719 196.320312 155.59375 194.582031 156.886719 C 190.179688 160.128906 186.710938 164.382812 184.359375 169.175781 C 183.441406 166.320312 182.476562 163.578125 181.484375 160.988281 C 183.722656 149.167969 192.03125 142.324219 192.105469 142.257812 L 189.082031 138.480469 C 188.753906 138.753906 182.203125 144.09375 178.527344 153.730469 C 173.488281 142.175781 168.746094 134.699219 168.433594 134.226562 L 164.371094 136.835938 C 164.425781 136.9375 168.121094 142.742188 172.410156 151.984375 C 165.171875 149.253906 156.949219 150.007812 156.488281 150.054688 L 156.960938 154.875 C 160.597656 154.507812 170.910156 154.6875 175.71875 159.601562 C 177.421875 163.769531 179.09375 168.332031 180.566406 173.238281 C 173.214844 169.457031 164.4375 169.402344 163.980469 169.402344 L 163.980469 174.238281 C 164.09375 174.238281 174.871094 174.316406 181.238281 179.382812 C 181.039062 180.835938 180.917969 182.3125 180.917969 183.792969 L 180.917969 188.878906 C 180.917969 192.148438 181.417969 195.34375 182.355469 198.441406 L 168.59375 196.324219 C 167.867188 196.210938 167.136719 196.136719 166.402344 196.089844 C 161.0625 196.089844 156.722656 191.714844 156.722656 186.335938 C 156.722656 185.210938 156.949219 184.050781 157.394531 182.898438 L 158.09375 181.042969 L 156.421875 179.984375 C 153.585938 178.191406 151.886719 175.136719 151.886719 171.820312 C 151.886719 169.921875 152.441406 168.070312 153.5 166.480469 L 155.003906 164.210938 L 152.585938 162.984375 C 147.679688 160.488281 144.628906 155.527344 144.628906 150.046875 C 144.628906 143.609375 148.957031 137.875 155.144531 136.097656 L 156.648438 135.671875 L 156.875 134.121094 C 157.566406 129.40625 161.65625 125.851562 166.402344 125.851562 C 166.488281 125.851562 166.582031 125.871094 166.667969 125.882812 C 166.835938 125.910156 167.007812 125.929688 167.175781 125.9375 L 168.914062 126.078125 L 169.597656 124.484375 C 171.117188 120.910156 174.613281 118.59375 178.5 118.59375 C 183.1875 118.59375 187.183594 121.949219 187.996094 126.582031 Z M 187.769531 199.273438 C 186.457031 195.949219 185.757812 192.46875 185.757812 188.878906 L 185.757812 183.792969 C 185.757812 174.789062 190.132812 166.1875 197.457031 160.773438 C 198.371094 160.101562 199.515625 159.722656 200.667969 159.722656 C 202.125 159.722656 203.476562 160.308594 204.460938 161.300781 C 198.75 167.550781 195.433594 175.761719 195.433594 184.3125 L 195.433594 193.199219 C 195.433594 195.691406 195.734375 198.160156 196.265625 200.578125 Z M 213.917969 159.921875 L 214.269531 163.757812 C 211.527344 165.089844 209.949219 167.113281 209.949219 169.402344 C 209.949219 172.066406 212.125 174.296875 215.507812 175.554688 C 215.070312 178.292969 214.789062 181.074219 214.789062 183.839844 L 214.789062 193.671875 C 214.789062 196.996094 215.109375 200.3125 215.722656 203.574219 L 201.464844 201.382812 C 200.6875 198.71875 200.273438 195.976562 200.273438 193.199219 L 200.273438 184.3125 C 200.273438 175.109375 204.695312 166.320312 212.105469 160.800781 C 212.644531 160.394531 213.265625 160.101562 213.917969 159.921875 Z M 221.734375 137.949219 L 222.359375 137.949219 C 224.851562 137.949219 226.886719 139.980469 226.886719 142.476562 C 226.886719 142.609375 226.875 142.75 226.867188 142.882812 L 224.675781 167.046875 L 226.515625 167.632812 C 228.632812 168.3125 229.304688 169.210938 229.304688 169.402344 C 229.304688 170.007812 226.734375 171.820312 222.046875 171.820312 C 217.359375 171.820312 214.789062 170.007812 214.789062 169.402344 C 214.789062 169.210938 215.460938 168.3125 217.578125 167.632812 L 219.417969 167.046875 L 217.226562 142.882812 C 217.21875 142.75 217.207031 142.609375 217.207031 142.476562 C 217.207031 139.980469 219.238281 137.949219 221.734375 137.949219 Z M 232.292969 160.78125 C 239.511719 166.300781 243.820312 175.101562 243.820312 184.3125 L 243.820312 193.199219 C 243.820312 198.160156 242.582031 203.015625 240.257812 207.34375 L 220.855469 204.359375 C 220.050781 200.851562 219.628906 197.269531 219.628906 193.671875 L 219.628906 183.839844 C 219.628906 181.402344 219.871094 178.976562 220.242188 176.554688 C 220.835938 176.601562 221.421875 176.660156 222.046875 176.660156 C 228.945312 176.660156 234.144531 173.539062 234.144531 169.402344 C 234.144531 167.113281 232.566406 165.089844 229.824219 163.757812 L 230.183594 159.847656 C 230.941406 159.996094 231.65625 160.300781 232.292969 160.78125 Z M 263.175781 183.792969 C 263.175781 173.257812 258.074219 163.203125 249.511719 156.886719 C 247.769531 155.59375 245.605469 154.886719 243.425781 154.886719 C 240.691406 154.886719 238.140625 155.972656 236.261719 157.832031 C 235.910156 157.539062 235.589844 157.21875 235.230469 156.9375 C 233.886719 155.914062 232.273438 155.300781 230.617188 155.054688 L 231.6875 143.316406 C 231.714844 143.035156 231.722656 142.761719 231.722656 142.476562 C 231.722656 137.308594 227.527344 133.109375 222.359375 133.109375 L 221.734375 133.109375 C 216.566406 133.109375 212.371094 137.308594 212.371094 142.476562 C 212.371094 142.761719 212.378906 143.035156 212.40625 143.316406 L 213.476562 155.101562 C 211.945312 155.394531 210.460938 155.992188 209.210938 156.917969 C 208.777344 157.238281 208.390625 157.617188 207.976562 157.957031 C 207.757812 157.738281 207.53125 157.53125 207.292969 157.324219 C 207.4375 156.519531 207.53125 155.707031 207.53125 154.886719 C 207.53125 151.8125 206.574219 148.875 204.800781 146.417969 C 206.574219 143.960938 207.53125 141.019531 207.53125 137.949219 C 207.53125 129.660156 200.519531 122.953125 192.171875 123.460938 C 190.613281 119.011719 186.996094 115.65625 182.542969 114.359375 C 179.59375 110.683594 175.152344 108.644531 170.398438 108.945312 C 168.394531 103.199219 162.972656 99.238281 156.722656 99.238281 C 151.488281 99.238281 146.714844 102.039062 144.144531 106.507812 C 137.738281 106.726562 132.210938 111.242188 130.621094 117.402344 C 123.128906 120.191406 118.015625 127.449219 118.015625 135.53125 C 118.015625 142.011719 121.207031 147.9375 126.480469 151.519531 C 125.6875 153.335938 125.273438 155.300781 125.273438 157.304688 C 125.273438 161.660156 127.210938 165.707031 130.527344 168.445312 C 130.253906 169.570312 130.109375 170.695312 130.109375 171.820312 C 130.109375 179.238281 135.695312 185.371094 142.886719 186.234375 L 148.238281 201.222656 C 145.496094 203.242188 143.164062 205.765625 141.367188 208.667969 L 128.695312 205.851562 C 128.210938 205.75 127.710938 205.691406 127.210938 205.691406 C 123.476562 205.691406 120.433594 208.734375 120.433594 212.46875 L 120.433594 213.429688 C 120.433594 214.101562 120.566406 214.746094 120.753906 215.367188 L 120.433594 215.367188 C 116.425781 215.367188 113.175781 218.621094 113.175781 222.628906 C 113.175781 226.632812 116.425781 229.886719 120.433594 229.886719 L 120.753906 229.886719 C 120.566406 230.507812 120.433594 231.140625 120.433594 231.824219 L 120.433594 232.785156 C 120.433594 236.519531 123.476562 239.5625 127.210938 239.5625 C 127.710938 239.5625 128.210938 239.503906 128.683594 239.402344 L 141.367188 236.585938 C 146.0625 244.164062 154.425781 249.238281 163.980469 249.238281 L 164.550781 249.238281 C 165.902344 249.238281 167.261719 249.136719 168.59375 248.929688 L 251.5625 236.167969 C 258.289062 235.128906 263.175781 229.441406 263.175781 222.628906 C 263.175781 217.183594 260.027344 212.496094 255.332031 210.285156 C 260.339844 204.292969 263.175781 196.703125 263.175781 188.878906 L 263.175781 183.792969 " fill-opacity="1" fill-rule="nonzero"/></g><path fill="rgb(0%, 0%, 0%)" d="M 161.5625 234.722656 L 166.402344 234.722656 L 166.402344 210.53125 L 161.5625 210.53125 L 161.5625 234.722656 " fill-opacity="1" fill-rule="nonzero"/><path fill="rgb(0%, 0%, 0%)" d="M 180.917969 234.722656 L 185.757812 234.722656 L 185.757812 210.53125 L 180.917969 210.53125 L 180.917969 234.722656 " fill-opacity="1" fill-rule="nonzero"/><path fill="rgb(0%, 0%, 0%)" d="M 200.273438 234.722656 L 205.109375 234.722656 L 205.109375 210.53125 L 200.273438 210.53125 L 200.273438 234.722656 " fill-opacity="1" fill-rule="nonzero"/><path fill="rgb(0%, 0%, 0%)" d="M 219.628906 229.886719 L 224.464844 229.886719 L 224.464844 215.367188 L 219.628906 215.367188 L 219.628906 229.886719 " fill-opacity="1" fill-rule="nonzero"/><path fill="rgb(0%, 0%, 0%)" d="M 238.980469 227.464844 L 243.820312 227.464844 L 243.820312 217.789062 L 238.980469 217.789062 L 238.980469 227.464844 " fill-opacity="1" fill-rule="nonzero"/></svg>