<?xml version="1.0" encoding="UTF-8"?><svg xmlns="http://www.w3.org/2000/svg" xmlns:xlink="http://www.w3.org/1999/xlink" width="375" zoomAndPan="magnify" viewBox="0 0 375 374.999991" height="374.999991" preserveAspectRatio="xMidYMid meet" version="1.0"><path fill="rgb(0%, 0%, 0%)" d="M 216.988281 150.234375 C 220.121094 148.960938 224.523438 149.074219 227.191406 151.742188 C 227.65625 152.207031 228.234375 152.4375 228.8125 152.4375 C 229.394531 152.4375 229.972656 152.207031 230.4375 151.742188 C 231.363281 150.816406 231.363281 149.421875 230.4375 148.496094 C 226.148438 144.207031 219.539062 144.207031 215.136719 146.0625 C 213.976562 146.527344 213.394531 147.917969 213.859375 149.074219 C 214.441406 150.234375 215.832031 150.816406 216.988281 150.234375 Z M 216.988281 150.234375 " fill-opacity="1" fill-rule="nonzero"/><path fill="rgb(0%, 0%, 0%)" d="M 160.304688 159.972656 C 152.65625 160.4375 146.972656 163.449219 144.539062 168.203125 C 143.960938 169.363281 144.425781 170.753906 145.46875 171.332031 C 146.625 171.914062 148.019531 171.449219 148.597656 170.40625 C 150.21875 167.273438 154.742188 165.074219 160.652344 164.726562 C 161.929688 164.609375 162.855469 163.566406 162.855469 162.289062 C 162.625 160.898438 161.582031 159.855469 160.304688 159.972656 Z M 160.304688 159.972656 " fill-opacity="1" fill-rule="nonzero"/><path fill="rgb(0%, 0%, 0%)" d="M 192.878906 240.1875 C 192.878906 239.839844 192.761719 239.609375 192.53125 239.378906 L 178.621094 209.007812 C 177.230469 205.992188 173.75 203.210938 170.507812 202.515625 C 170.507812 202.515625 119.847656 191.269531 119.734375 191.269531 C 118.691406 191.039062 117.414062 191.734375 116.835938 192.660156 C 116.835938 192.660156 110.691406 202.398438 110.691406 202.515625 C 109.300781 205.296875 108.953125 209.703125 109.878906 212.714844 L 119.386719 241.464844 C 120.429688 244.710938 123.90625 247.492188 127.382812 247.957031 C 127.382812 247.957031 178.621094 253.867188 178.96875 253.867188 C 182.214844 253.867188 185.574219 251.898438 187.199219 249.230469 C 187.199219 249.230469 192.183594 242.160156 192.183594 242.042969 C 192.761719 241.578125 192.878906 240.882812 192.878906 240.1875 Z M 183.257812 246.914062 C 182.5625 248.304688 180.359375 249.460938 178.734375 249.230469 L 128.078125 243.433594 C 126.457031 243.203125 124.484375 241.695312 123.90625 240.074219 L 114.402344 211.324219 C 113.820312 209.46875 114.054688 206.457031 114.863281 204.71875 L 118.574219 198.804688 L 130.28125 233.699219 C 130.515625 234.507812 131.324219 235.089844 132.136719 235.203125 L 186.386719 242.390625 C 186.503906 242.390625 183.375 246.796875 183.257812 246.914062 Z M 134.339844 230.800781 L 122.863281 196.71875 L 169.578125 207.035156 C 171.316406 207.382812 173.75 209.238281 174.449219 210.976562 L 186.734375 237.753906 Z M 134.339844 230.800781 " fill-opacity="1" fill-rule="nonzero"/><path fill="rgb(0%, 0%, 0%)" d="M 137.46875 207.5 C 137.003906 206.339844 135.730469 205.644531 134.453125 206.109375 C 133.296875 206.570312 132.601562 207.847656 133.0625 209.121094 C 133.0625 209.121094 133.875 211.207031 133.875 211.207031 C 134.339844 212.367188 135.613281 213.0625 136.890625 212.601562 C 138.046875 212.136719 138.742188 210.859375 138.28125 209.585938 Z M 137.46875 207.5 " fill-opacity="1" fill-rule="nonzero"/><path fill="rgb(0%, 0%, 0%)" d="M 156.132812 216.078125 C 155.667969 214.917969 154.394531 214.222656 153.117188 214.6875 C 151.957031 215.148438 151.261719 216.425781 151.726562 217.699219 C 151.726562 217.699219 152.539062 219.785156 152.539062 219.785156 C 153.003906 220.945312 154.277344 221.640625 155.550781 221.179688 C 156.710938 220.714844 157.40625 219.4375 156.945312 218.164062 Z M 156.132812 216.078125 " fill-opacity="1" fill-rule="nonzero"/><path fill="rgb(0%, 0%, 0%)" d="M 171.433594 222.570312 C 170.273438 223.03125 169.578125 224.308594 170.042969 225.582031 C 170.042969 225.582031 170.855469 227.667969 170.855469 227.667969 C 171.316406 228.828125 172.59375 229.523438 173.867188 229.058594 C 175.027344 228.597656 175.722656 227.320312 175.257812 226.046875 L 174.449219 223.960938 C 173.984375 222.800781 172.707031 222.222656 171.433594 222.570312 Z M 171.433594 222.570312 " fill-opacity="1" fill-rule="nonzero"/><path fill="rgb(0%, 0%, 0%)" d="M 159.261719 188.953125 C 159.261719 190.226562 160.304688 191.269531 161.582031 191.269531 L 166.21875 191.269531 C 167.492188 191.269531 168.535156 190.226562 168.535156 188.953125 C 168.535156 187.675781 167.492188 186.632812 166.21875 186.632812 L 161.582031 186.632812 C 160.304688 186.632812 159.261719 187.675781 159.261719 188.953125 Z M 159.261719 188.953125 " fill-opacity="1" fill-rule="nonzero"/><path fill="rgb(0%, 0%, 0%)" d="M 255.128906 159.625 C 253.734375 158 252.34375 156.261719 250.839844 154.523438 C 246.433594 148.960938 241.796875 143.28125 235.535156 139.570312 C 225.800781 133.773438 213.742188 135.746094 204.238281 138.0625 L 165.519531 146.757812 C 151.726562 147.222656 136.773438 152.089844 130.976562 163.101562 C 128.3125 168.320312 128.078125 174.808594 130.398438 180.027344 C 132.253906 183.96875 135.382812 186.867188 139.324219 188.257812 L 139.324219 191.15625 L 143.960938 192.199219 L 143.960938 186.632812 C 143.960938 185.589844 143.265625 184.664062 142.105469 184.429688 C 138.742188 183.621094 136.078125 181.417969 134.570312 178.289062 C 132.714844 174.347656 132.949219 169.476562 135.035156 165.535156 C 142.222656 151.742188 167.722656 149.308594 181.402344 153.597656 C 190.328125 156.378906 203.3125 165.1875 200.179688 176.550781 C 199.371094 179.332031 197.515625 181.070312 194.964844 182.460938 C 193.457031 183.273438 191.835938 183.851562 190.210938 184.316406 C 187.894531 185.011719 185.34375 185.589844 184.300781 185.707031 C 183.023438 185.9375 182.214844 187.214844 182.445312 188.371094 C 182.675781 189.648438 183.953125 190.460938 185.113281 190.226562 C 185.808594 190.113281 186.734375 189.878906 187.894531 189.648438 L 187.894531 219.207031 L 192.53125 229.292969 L 192.53125 188.257812 C 192.761719 188.140625 202.5 185.128906 204.585938 177.476562 C 208.757812 162.871094 193.691406 152.4375 182.792969 148.84375 C 181.980469 148.613281 181.054688 148.378906 180.128906 148.148438 L 205.050781 142.585938 C 213.628906 140.382812 224.640625 138.644531 232.871094 143.511719 C 238.433594 146.875 242.722656 152.207031 246.898438 157.421875 C 248.289062 159.160156 249.796875 161.015625 251.1875 162.753906 C 251.1875 162.753906 253.386719 165.421875 252.578125 168.085938 C 251.765625 170.636719 248.519531 172.839844 243.070312 174.578125 L 226.378906 180.027344 C 225.21875 180.375 224.523438 181.765625 224.871094 182.925781 C 225.21875 184.082031 226.609375 184.777344 227.769531 184.429688 L 244.347656 178.984375 C 245.160156 178.75 246.085938 178.402344 246.78125 178.171875 L 246.78125 210.511719 C 246.78125 212.019531 245.507812 213.757812 243.882812 214.222656 L 238.667969 215.960938 L 238.667969 207.5 C 238.667969 206.222656 237.625 205.179688 236.347656 205.179688 C 235.074219 205.179688 234.03125 206.222656 234.03125 207.5 L 234.03125 217.351562 L 227.074219 219.671875 L 227.074219 209.816406 C 227.074219 208.542969 226.03125 207.5 224.757812 207.5 C 223.480469 207.5 222.4375 208.542969 222.4375 209.816406 L 222.4375 221.179688 L 215.484375 223.496094 L 215.484375 214.453125 C 215.484375 213.179688 214.441406 212.136719 213.164062 212.136719 C 211.890625 212.136719 210.847656 213.179688 210.847656 214.453125 L 210.847656 225.121094 L 193.226562 231.03125 L 195.195312 235.320312 L 245.390625 218.511719 C 248.75 217.46875 251.417969 213.875 251.417969 210.398438 L 251.417969 175.621094 C 254.316406 173.765625 256.171875 171.679688 256.867188 169.128906 C 258.953125 164.03125 255.359375 159.742188 255.128906 159.625 Z M 255.128906 159.625 " fill-opacity="1" fill-rule="nonzero"/></svg>